<?xml version="1.0" encoding="UTF-8" standalone="no"?>
<!-- Created with Inkscape (http://www.inkscape.org/) -->

<svg
   xmlns:dc="http://purl.org/dc/elements/1.1/"
   xmlns:cc="http://creativecommons.org/ns#"
   xmlns:rdf="http://www.w3.org/1999/02/22-rdf-syntax-ns#"
   xmlns:svg="http://www.w3.org/2000/svg"
   xmlns="http://www.w3.org/2000/svg"
   xmlns:xlink="http://www.w3.org/1999/xlink"
   xmlns:sodipodi="http://sodipodi.sourceforge.net/DTD/sodipodi-0.dtd"
   xmlns:inkscape="http://www.inkscape.org/namespaces/inkscape"
   width="800"
   height="800"
   id="svg2"
   version="1.1"
   inkscape:version="0.47 r22583"
   sodipodi:docname="icon.svg"
   inkscape:export-filename="/Users/rob/Dropbox/code/bbdev-workspace/test/res/icon.png"
   inkscape:export-xdpi="9"
   inkscape:export-ydpi="9">
  <defs
     id="defs4">
    <linearGradient
       id="linearGradient3703">
      <stop
         style="stop-color:#ffff00;stop-opacity:1;"
         offset="0"
         id="stop3705" />
      <stop
         style="stop-color:#ffd200;stop-opacity:1;"
         offset="1"
         id="stop3707" />
    </linearGradient>
    <inkscape:perspective
       sodipodi:type="inkscape:persp3d"
       inkscape:vp_x="0 : 526.18109 : 1"
       inkscape:vp_y="0 : 1000 : 0"
       inkscape:vp_z="744.09448 : 526.18109 : 1"
       inkscape:persp3d-origin="372.04724 : 350.78739 : 1"
       id="perspective10" />
    <filter
       inkscape:collect="always"
       id="filter3697"
       x="-0.17468159"
       width="1.3493632"
       y="-0.11274093"
       height="1.2254819"
       color-interpolation-filters="sRGB">
      <feGaussianBlur
         inkscape:collect="always"
         stdDeviation="32.161711"
         id="feGaussianBlur3699" />
    </filter>
    <radialGradient
       inkscape:collect="always"
       xlink:href="#linearGradient3703"
       id="radialGradient3711"
       cx="373.18484"
       cy="586.00183"
       fx="373.18484"
       fy="586.00183"
       r="190.76491"
       gradientTransform="matrix(0.64082346,0,0,0.51270504,160.16952,459.60359)"
       gradientUnits="userSpaceOnUse" />
  </defs>
  <sodipodi:namedview
     id="base"
     pagecolor="#000000"
     bordercolor="#666666"
     borderopacity="1.0"
     inkscape:pageopacity="1"
     inkscape:pageshadow="2"
     inkscape:zoom="0.67372242"
     inkscape:cx="372.04724"
     inkscape:cy="446.67746"
     inkscape:document-units="px"
     inkscape:current-layer="layer1"
     showgrid="false"
     inkscape:window-width="1680"
     inkscape:window-height="957"
     inkscape:window-x="0"
     inkscape:window-y="0"
     inkscape:window-maximized="0"
     inkscape:showpageshadow="false" />
  <metadata
     id="metadata7">
    <rdf:RDF>
      <cc:Work
         rdf:about="">
        <dc:format>image/svg+xml</dc:format>
        <dc:type
           rdf:resource="http://purl.org/dc/dcmitype/StillImage" />
        <dc:title></dc:title>
      </cc:Work>
    </rdf:RDF>
  </metadata>
  <g
     inkscape:label="Ebene 1"
     inkscape:groupmode="layer"
     id="layer1"
     transform="translate(0,-252.36218)">
    <path
       id="path2907"
       d="m 373.24848,312.50241 c -32.66887,0.26962 -64.7845,13.73495 -87.875,36.875 -25.45172,25.33992 -43.73896,56.92178 -58.3125,89.5 -27.21548,63.08506 -37.95473,132.15611 -39.75,200.59375 -0.0276,5.51722 -0.55588,11.08606 -1.09375,16.625 -1.67302,10.42577 -2.55575,21.07211 -3.71875,31.53125 -3.33276,49.32964 -7.7186,98.8927 -3.3125,148.3125 1.96758,19.1276 4.57509,38.23598 3.875,57.53125 0.19043,18.60098 -1.19596,37.46962 2.28125,55.75 1.40647,11.70564 3.95265,23.3005 3.34375,35.21874 -0.9586,3.1659 -0.49575,5.1758 0.8125,6.4063 0.0778,0.7031 0.17425,1.3964 0.28125,2.0937 20.61235,1.0647 41.61271,-0.019 62.375,0.3438 41.0594,0.5249 82.11595,-0.266 123.125,-2.3438 26.68237,-0.8266 53.39692,-0.7321 80,1.6563 32.29851,1.3878 64.78028,0.3745 97,1.0937 6.7221,0.8931 13.70237,2.6686 20.4375,2.0313 5.19536,2.5844 12.56947,0.4669 18.59375,1.2187 9.05631,-0.4075 18.5056,1.002 27.3125,-0.5625 1.14855,-20.22333 0.18628,-40.84244 0.53125,-61.21874 0.099,-22.06914 -0.28795,-44.95483 -9.15625,-65.46875 -1.47811,-15.24917 -3.04426,-30.45567 -2.3125,-45.8125 0.0214,-48.29164 -0.13313,-96.58345 0,-144.875 -0.11993,-0.14656 -0.24552,-0.27671 -0.375,-0.40625 0.0655,-21.88008 -0.12306,-43.78196 0.0312,-65.65625 0.34087,-40.01063 -7.08278,-79.84214 -21.3125,-117.15625 -16.74383,-47.79135 -38.14085,-96.49328 -77.09375,-130.4375 -25.41677,-22.68379 -57.16149,-37.04338 -89.5625,-46.59375 -15.01487,-4.07117 -30.53869,-6.4965 -46.125,-6.25 z m 0.8125,46.375 c 0.73703,-0.014 1.48283,-0.004 2.21875,0 25.51185,0.1364 50.39207,10.76317 73.28125,21.5625 34.69469,17.62274 59.02177,50.1351 74.53125,85.15625 12.55612,27.98576 23.31972,57.14126 30.5,87.0625 7.88595,35.54378 6.14855,72.02892 5.8125,108.28125 -18.88898,-2.53746 -37.44518,-7.94166 -56.5,-9.1875 -17.39423,-1.9089 -34.82487,-2.90303 -52.09375,-5.90625 -35.64196,-1.97075 -71.37135,-2.22247 -107,-4.65625 -36.93193,-2.26514 -73.85495,-4.60645 -110.8125,-6.40625 1.01739,-22.40497 1.92722,-44.81943 5.375,-66.96875 9.05813,-62.35231 28.34058,-125.17939 68.40625,-174.71875 12.83711,-15.93941 30.40247,-28.81356 50.75,-32.5 5.19596,-1.06156 10.37203,-1.62046 15.53125,-1.71875 z m -143.71875,322.4375 c 69.63701,3.05772 139.14906,8.73657 208.84375,10.5 17.41754,1.23996 34.53031,4.84916 52,5.53125 20.44593,1.52857 40.50467,6.26204 60.71875,9.75 2.8677,0.11481 5.72678,0.5529 8.59375,1 0.0174,1.33704 0.0291,2.67092 0.0625,4 0.12324,0.036 0.2514,0.0589 0.375,0.0937 0.0757,9.16562 0.16654,18.34292 0,27.46875 0.22749,37.46034 -0.54925,74.97261 0.375,112.40625 1.59205,9.83501 0.98802,19.99734 3.5,29.625 5.96626,13.86945 7.84879,28.86948 7.5,43.90625 0.11623,7.77631 0.10609,15.57035 0.0625,23.375 -2.55667,-0.11107 -5.40904,0.22322 -7.59375,-0.625 -19.7926,-3.50188 -40.0162,-0.91711 -60,-1.65625 -26.58146,0.2936 -53.12624,-0.86966 -79.625,-2.8125 -9.74706,-0.20637 -19.50107,-0.0563 -29.25,-0.0625 -42.66641,0.59006 -85.27034,4.13495 -127.96875,2.96875 -11.91672,0.007 -23.83331,0.0172 -35.75,0 -0.77866,-6.73572 -1.99165,-13.54358 -2.4375,-20.25 0.0228,-30.17679 1.11656,-60.54505 -3.75,-90.4375 -3.98086,-42.60409 -1.14073,-85.40646 1.875,-127.96875 0.28216,-8.67207 1.06133,-17.31924 2.0625,-25.9375 0.16843,-0.27039 0.28448,-0.56563 0.40625,-0.875 z m 161.8125,47.84375 c -1.25669,-0.0101 -2.49918,0.0435 -3.75,0.1875 -6.55686,1.63482 -14.10051,1.62957 -19.96875,5.8125 -10.69949,6.63276 -21.63431,14.82903 -26.46875,26.84375 -6.09324,14.47906 2.53419,32.42603 16.9375,37.90625 2.81402,0.97868 7.08265,0.78621 6.1875,4.9375 0.6466,11.11957 0.40657,22.2682 1.40625,33.375 0.94058,15.05942 1.26432,30.11784 0.15625,45.1875 -0.68518,8.82153 -0.88962,19.56268 7.59375,24.90625 9.30067,5.32325 20.28444,5.93411 30.40625,8.90625 10.86371,1.65898 20.1329,-8.08329 20.4375,-18.5625 2.58802,-27.81276 -7.06773,-54.64031 -7.875,-82.21875 0.15714,-3.65683 -2.56593,-9.64703 2.84375,-9.84375 11.36979,-4.04052 16.44219,-16.43148 16.9375,-27.75 1.58255,-12.42828 -0.13867,-25.72355 -7.8125,-35.9375 -8.49228,-9.18587 -21.55995,-11.38361 -33.25,-13.59375 -1.25366,-0.0726 -2.52456,-0.14618 -3.78125,-0.15625 z"
       style="fill:#ffffff;fill-opacity:1;stroke:#ffffff;stroke-width:4;stroke-linecap:round;stroke-linejoin:round;stroke-miterlimit:4;stroke-opacity:1;stroke-dasharray:none;stroke-dashoffset:14.4;filter:url(#filter3697)"
       transform="matrix(0.64082346,0,0,0.64082346,143.04849,235.19252)" />
    <rect
       style="fill:url(#radialGradient3711);fill-opacity:1;fill-rule:nonzero;stroke:#ffffff;stroke-width:2.56329393;stroke-linecap:round;stroke-linejoin:round;stroke-miterlimit:4;stroke-opacity:1;stroke-dasharray:none;stroke-dashoffset:14.4"
       id="rect3701"
       width="241.92998"
       height="193.04897"
       x="278.35013"
       y="663.52515"
       rx="6.4082346"
       ry="6.4082346" />
    <path
       style="fill:#ffffff;fill-opacity:1;stroke:#000000;stroke-width:2.56329393;stroke-linecap:round;stroke-linejoin:round;stroke-miterlimit:4;stroke-opacity:1;stroke-dasharray:none;stroke-dashoffset:14.4"
       d="m 382.23487,435.4514 c -20.93498,0.17278 -41.51543,8.80167 -56.31237,23.63036 -16.31005,16.23842 -28.02895,36.47681 -37.36801,57.3537 -17.44031,40.42639 -24.32228,84.68874 -25.47274,128.54518 -0.0177,3.53557 -0.35622,7.10421 -0.70089,10.65369 -1.07211,6.68108 -1.63779,13.50351 -2.38307,20.20597 -2.13571,31.61159 -4.94625,63.37276 -2.12272,95.04213 1.26087,12.25741 2.93182,24.50251 2.48319,36.86737 0.12203,11.91995 -0.7664,24.01142 1.46188,35.72592 0.90129,7.50124 2.53295,14.9315 2.14275,22.56899 -0.61429,2.02878 -0.31769,3.31677 0.52067,4.10531 0.0498,0.45056 0.11166,0.89484 0.18023,1.34169 13.20888,0.68228 26.6664,-0.0121 39.97136,0.22031 26.31183,0.33637 52.62183,-0.17046 78.90139,-1.50196 17.0987,-0.5297 34.21801,-0.46915 51.26588,1.06139 20.69764,0.88934 41.51272,0.23999 62.15988,0.70087 4.30767,0.57232 8.7808,1.71011 13.09683,1.30171 3.32931,1.65615 8.05481,0.2992 11.91531,0.78097 5.80349,-0.26114 11.85882,0.64211 17.50249,-0.36046 0.73602,-12.95959 0.11937,-26.1728 0.34043,-39.23041 0.0635,-14.14242 -0.18452,-28.8081 -5.86754,-41.95391 -0.9472,-9.77202 -1.95083,-19.51671 -1.4819,-29.35772 0.0138,-30.94642 -0.0853,-61.89295 0,-92.8393 -0.0768,-0.0939 -0.15733,-0.17732 -0.24031,-0.26033 0.042,-14.02128 -0.0789,-28.05652 0.02,-42.07407 0.21843,-25.63976 -4.53881,-51.16472 -13.65756,-75.07648 -10.72983,-30.62581 -24.44154,-61.83516 -49.40348,-83.5874 -16.28766,-14.53631 -36.63042,-23.73827 -57.39375,-29.85838 -9.62188,-2.6089 -19.56991,-4.1631 -29.55798,-4.00514 z m 0.52067,29.71819 c 0.47231,-0.009 0.95024,-0.003 1.42182,0 16.3486,0.0874 32.29243,6.89729 46.96035,13.81775 22.23318,11.29307 37.82254,32.12775 47.76138,54.57013 8.04625,17.93393 14.94382,36.61745 19.54511,55.79168 5.0535,22.7773 3.94014,46.15783 3.72479,69.38917 -12.10451,-1.62606 -23.99576,-5.0892 -36.20652,-5.88756 -11.14664,-1.22327 -22.3166,-1.86033 -33.3829,-3.78486 -22.84021,-1.2629 -45.73644,-1.42422 -68.56811,-2.98384 -23.66686,-1.45155 -47.32799,-2.95192 -71.01125,-4.10527 0.65196,-14.35763 1.235,-28.72135 3.44442,-42.91515 5.80466,-39.95682 18.1613,-80.2179 43.83633,-111.96388 8.22632,-10.21435 19.48262,-18.4644 32.52179,-20.82676 3.32969,-0.68027 6.64664,-1.03843 9.95279,-1.10141 z M 290.65719,671.7951 c 44.62503,1.95946 89.16999,5.5986 133.83198,6.72865 11.16157,0.79459 22.12783,3.10746 33.32281,3.54455 13.10224,0.97955 25.95635,4.01287 38.91,6.24803 1.8377,0.0736 3.66986,0.35431 5.50709,0.64082 0.0112,0.85681 0.0186,1.71159 0.0401,2.5633 0.079,0.0231 0.16111,0.0378 0.24031,0.0601 0.0485,5.87353 0.10673,11.75457 0,17.60261 0.14578,24.00547 -0.35197,48.0442 0.24031,72.03256 1.02022,6.30251 0.63315,12.81477 2.24288,18.9844 3.82332,8.88787 5.02969,18.50024 4.80617,28.13615 0.0745,4.98325 0.068,9.97785 0.0401,14.97925 -1.63838,-0.0712 -3.46624,0.14304 -4.86626,-0.40051 -12.68356,-2.24409 -25.64332,-0.58771 -38.44941,-1.06136 -17.03402,0.18814 -34.04454,-0.5573 -51.02556,-1.80232 -6.24615,-0.13225 -12.49675,-0.0361 -18.74409,-0.0401 -27.34164,0.37813 -54.64323,2.64977 -82.00538,1.90244 -7.63651,0.004 -15.27294,0.011 -22.90944,0 -0.49898,-4.3164 -1.27629,-8.67904 -1.562,-12.97667 0.0146,-19.33799 0.71551,-38.79869 -2.40309,-57.95447 -2.55103,-27.30171 -0.73101,-54.73047 1.20154,-82.00538 0.18081,-5.55727 0.68013,-11.09858 1.3217,-16.62136 0.10793,-0.17327 0.1823,-0.36247 0.26033,-0.56072 z m 103.69325,30.6594 c -0.80531,-0.007 -1.60153,0.0278 -2.40309,0.12015 -4.20179,1.04763 -9.03594,1.04427 -12.79644,3.72479 -6.85649,4.25043 -13.86378,9.50279 -16.96179,17.20211 -3.9047,9.27852 1.62396,20.77935 10.85394,24.29121 1.80329,0.62716 4.53873,0.50382 3.9651,3.16407 0.41435,7.12568 0.26053,14.26998 0.90115,21.38747 0.60274,9.65044 0.81021,19.30023 0.10013,28.95722 -0.43908,5.65305 -0.57009,12.53623 4.86626,15.96051 5.96008,3.41126 12.99874,3.80272 19.48503,5.70734 6.96173,1.06311 12.90164,-5.17997 13.09684,-11.89529 1.65845,-17.82307 -4.52918,-35.0148 -5.0465,-52.68771 0.10071,-2.34338 -1.64431,-6.18204 1.82235,-6.3081 7.28603,-2.58926 10.53654,-10.52968 10.85394,-17.78285 1.01414,-7.96434 -0.0889,-16.48426 -5.00642,-23.0296 -5.44206,-5.88652 -13.81613,-7.29488 -21.30738,-8.71119 -0.80338,-0.0466 -1.61781,-0.0937 -2.42312,-0.10013 z"
       id="path2816" />
  </g>
</svg>
