<?xml version="1.0" encoding="UTF-8" standalone="no"?>
<!-- Created with Inkscape (http://www.inkscape.org/) -->

<svg
   xmlns:dc="http://purl.org/dc/elements/1.1/"
   xmlns:cc="http://creativecommons.org/ns#"
   xmlns:rdf="http://www.w3.org/1999/02/22-rdf-syntax-ns#"
   xmlns:svg="http://www.w3.org/2000/svg"
   xmlns="http://www.w3.org/2000/svg"
   xmlns:xlink="http://www.w3.org/1999/xlink"
   xmlns:sodipodi="http://sodipodi.sourceforge.net/DTD/sodipodi-0.dtd"
   xmlns:inkscape="http://www.inkscape.org/namespaces/inkscape"
   width="800"
   height="800"
   id="svg2"
   version="1.1"
   inkscape:version="0.47 r22583"
   sodipodi:docname="icon.svg"
   inkscape:export-filename="/Users/rob/Dropbox/code/bbdev-workspace/test/res/icon.png"
   inkscape:export-xdpi="9"
   inkscape:export-ydpi="9">
  <defs
     id="defs4">
    <linearGradient
       id="linearGradient3703">
      <stop
         style="stop-color:#ffff00;stop-opacity:1;"
         offset="0"
         id="stop3705" />
      <stop
         style="stop-color:#ffd200;stop-opacity:1;"
         offset="1"
         id="stop3707" />
    </linearGradient>
    <inkscape:perspective
       sodipodi:type="inkscape:persp3d"
       inkscape:vp_x="0 : 526.18109 : 1"
       inkscape:vp_y="0 : 1000 : 0"
       inkscape:vp_z="744.09448 : 526.18109 : 1"
       inkscape:persp3d-origin="372.04724 : 350.78739 : 1"
       id="perspective10" />
    <filter
       inkscape:collect="always"
       id="filter3697"
       x="-0.17468159"
       width="1.3493632"
       y="-0.11274093"
       height="1.2254819"
       color-interpolation-filters="sRGB">
      <feGaussianBlur
         inkscape:collect="always"
         stdDeviation="32.161711"
         id="feGaussianBlur3699" />
    </filter>
    <radialGradient
       inkscape:collect="always"
       xlink:href="#linearGradient3703"
       id="radialGradient3711"
       cx="373.18484"
       cy="586.00183"
       fx="373.18484"
       fy="586.00183"
       r="190.76491"
       gradientTransform="matrix(0.64082346,0,0,0.51270504,160.16952,459.60359)"
       gradientUnits="userSpaceOnUse" />
    <radialGradient
       inkscape:collect="always"
       xlink:href="#linearGradient3703"
       id="radialGradient2938"
       gradientUnits="userSpaceOnUse"
       gradientTransform="matrix(0.64082346,0,0,0.51270504,324.9258,383.90476)"
       cx="373.18484"
       cy="586.00183"
       fx="373.18484"
       fy="586.00183"
       r="190.76491" />
    <filter
       inkscape:collect="always"
       id="filter3827">
      <feGaussianBlur
         inkscape:collect="always"
         stdDeviation="2.3624076"
         id="feGaussianBlur3829" />
    </filter>
  </defs>
  <sodipodi:namedview
     id="base"
     pagecolor="#000000"
     bordercolor="#666666"
     borderopacity="1.0"
     inkscape:pageopacity="1"
     inkscape:pageshadow="2"
     inkscape:zoom="0.67372242"
     inkscape:cx="94.696738"
     inkscape:cy="379.25538"
     inkscape:document-units="px"
     inkscape:current-layer="layer1"
     showgrid="false"
     inkscape:window-width="1187"
     inkscape:window-height="826"
     inkscape:window-x="188"
     inkscape:window-y="0"
     inkscape:window-maximized="0"
     inkscape:showpageshadow="false" />
  <metadata
     id="metadata7">
    <rdf:RDF>
      <cc:Work
         rdf:about="">
        <dc:format>image/svg+xml</dc:format>
        <dc:type
           rdf:resource="http://purl.org/dc/dcmitype/StillImage" />
        <dc:title />
      </cc:Work>
    </rdf:RDF>
  </metadata>
  <g
     inkscape:label="Ebene 1"
     inkscape:groupmode="layer"
     id="layer1"
     transform="translate(0,-252.36218)">
    <g
       transform="matrix(3.4100455,0,0,3.4100455,-207.39044,-961.33878)"
       id="g3756"
       style="fill:#ffffff;fill-opacity:1;stroke:none;filter:url(#filter3827)">
      <g
         style="font-size:89.42809296px;font-style:normal;font-variant:normal;font-weight:normal;font-stretch:condensed;text-align:start;line-height:125%;writing-mode:lr-tb;text-anchor:start;fill:#ffffff;fill-opacity:1;stroke:none;font-family:Impact;-inkscape-font-specification:Impact Condensed"
         id="text3758" />
      <g
         style="font-size:76.90969086px;font-style:normal;font-variant:normal;font-weight:normal;font-stretch:condensed;text-align:start;line-height:125%;writing-mode:lr-tb;text-anchor:start;fill:#ffffff;fill-opacity:1;stroke:none;font-family:Impact;-inkscape-font-specification:Impact Condensed"
         id="text3762" />
      <g
         style="font-size:116.98408508px;font-style:normal;font-variant:normal;font-weight:bold;font-stretch:normal;text-align:start;line-height:125%;writing-mode:lr-tb;text-anchor:start;fill:#ffffff;fill-opacity:1;stroke:none;font-family:Savoye LET;-inkscape-font-specification:Savoye LET Bold"
         id="text3766">
        <path
           id="path3779"
           style="line-height:125%;fill:#ffffff;fill-opacity:1;stroke:none;font-family:Savoye LET;-inkscape-font-specification:Savoye LET Bold"
           d="m 262.98957,472.09898 -5.36939,20.90634 c -0.57123,2.28486 -0.85684,4.07465 -0.85681,5.36939 -3e-5,1.14242 0.2475,2.13252 0.74257,2.97029 0.49503,0.83779 1.10432,1.25667 1.82788,1.25667 1.10431,0 2.93219,-1.35186 5.48363,-4.0556 l 0.79969,0.7997 -0.62833,0.74257 c -2.01831,2.32293 -3.57962,3.9604 -4.68393,4.91242 -1.06629,0.91394 -1.99927,1.3709 -2.79894,1.3709 -1.21861,0 -2.28487,-0.62833 -3.19878,-1.88499 -0.87588,-1.29475 -1.31381,-2.77989 -1.31379,-4.45545 -2e-5,-1.21858 0.45695,-3.97943 1.37091,-8.28257 l 0.45697,-2.1706 c -1.40901,3.27496 -3.29401,6.41662 -5.65499,9.42499 -3.96042,5.02666 -7.74945,7.53999 -11.36711,7.53999 -2.17061,0 -3.88424,-0.78066 -5.1409,-2.34197 -1.25667,-1.56131 -1.885,-3.65575 -1.885,-6.28332 0,-3.57958 1.00914,-7.33053 3.02742,-11.25287 2.05636,-3.92229 4.58873,-7.14011 7.59711,-9.65347 3.04645,-2.55138 5.99771,-3.82708 8.85378,-3.82711 3.00836,3e-5 5.25512,1.10437 6.74029,3.31302 l 0.62833,-2.1706 5.36939,-2.22773 m -6.56893,7.31151 c -0.45699,-1.44704 -1.23765,-2.57042 -2.34197,-3.37015 -1.06628,-0.83774 -2.3039,-1.25663 -3.71287,-1.25666 -1.67557,3e-5 -3.44632,0.78068 -5.31227,2.34196 -1.86596,1.52326 -3.5796,3.65578 -5.1409,6.39757 -1.21859,2.17062 -2.24677,4.56971 -3.08454,7.19726 -0.7997,2.62759 -1.19955,4.79819 -1.19954,6.51181 -1e-5,1.94213 0.36176,3.46536 1.0853,4.56969 0.76161,1.10435 1.82787,1.65652 3.19878,1.65652 1.75171,0 3.57958,-0.81874 5.48363,-2.45621 1.90402,-1.63747 3.78902,-3.97943 5.65499,-7.0259 1.14241,-1.7517 2.0373,-3.50342 2.6847,-5.25515 0.64735,-1.75169 1.37088,-4.18886 2.1706,-7.3115 l 0.51409,-1.99924 m -82.54004,27.0183 15.19422,-78.14172 5.99772,-2.91318 -15.82256,69.57355 c 0.15232,-0.26656 0.22848,-0.43792 0.22849,-0.51409 l 1.31378,-2.9703 c 2.24676,-5.1028 5.06473,-9.52017 8.45393,-13.25211 3.19877,-3.46531 6.15002,-5.19799 8.85378,-5.19802 1.44704,3e-5 2.6085,0.47604 3.48439,1.42803 0.87583,0.91397 1.31376,2.15159 1.31378,3.71287 -2e-5,0.87589 -0.20947,2.11351 -0.62833,3.71288 l -0.57121,2.39909 -1.77076,6.96877 -0.51409,2.22773 c -0.57123,2.28485 -0.85684,4.03657 -0.85681,5.25514 -3e-5,1.21859 0.20942,2.20869 0.62833,2.9703 0.41886,0.72354 0.97103,1.08531 1.65651,1.0853 1.18048,10e-6 3.06548,-1.40898 5.65499,-4.22696 l 0.85682,0.7997 -0.51409,0.62833 c -2.17063,2.55141 -3.78906,4.28408 -4.85529,5.19802 -1.02821,0.87586 -1.96119,1.31379 -2.79894,1.31379 -1.18053,0 -2.18967,-0.62834 -3.02742,-1.885 -0.8378,-1.25666 -1.25668,-2.72277 -1.25667,-4.39833 -1e-5,-1.02817 0.24751,-2.83701 0.74258,-5.42651 l 2.1706,-12.10968 c 0.34271,-1.78977 0.51407,-3.12259 0.51409,-3.99848 -2e-5,-0.79966 -0.20946,-1.40896 -0.62833,-1.82787 -0.41891,-0.41886 -0.99012,-0.62831 -1.71363,-0.62833 -1.40901,2e-5 -3.02744,0.8378 -4.8553,2.51333 -1.82789,1.63749 -3.67481,3.92234 -5.54075,6.85453 -1.82788,2.93224 -3.42728,6.0739 -4.79818,9.42499 -1.37091,3.31303 -2.39909,6.72126 -3.08454,10.22468 l -3.82711,1.19955 m -10.11044,-31.0739 -4.34121,19.02134 c -0.45697,2.09445 -0.68545,3.5796 -0.68545,4.45544 0,1.37092 0.32368,2.47526 0.97106,3.31303 0.64737,0.83778 1.50418,1.25667 2.57045,1.25667 1.02817,0 1.96115,-0.28561 2.79894,-0.85682 0.87584,-0.60929 2.18963,-1.84691 3.94135,-3.71288 l 0.68546,-0.68545 0.85682,0.85682 c -2.24678,2.74182 -4.13178,4.68393 -5.655,5.82635 -1.48516,1.10435 -2.95126,1.65652 -4.39832,1.65652 -1.82788,0 -3.29399,-0.59025 -4.39833,-1.77076 -1.06626,-1.21858 -1.59939,-2.79893 -1.59939,-4.74105 0,-1.44706 0.2856,-3.5415 0.85681,-6.28333 l 3.71288,-18.33588 -5.48363,0 0.39985,-1.94212 5.48363,0 3.19878,-15.42271 5.48363,-2.1706 -3.99848,17.59331 9.25362,0 -0.39985,1.94212 -9.25362,0 m -14.73725,-25.30466 c 0.99008,5e-5 1.78978,0.3047 2.39909,0.91393 0.60927,0.60935 0.91392,1.40904 0.91393,2.39909 -1e-5,0.95207 -0.3237,1.75177 -0.97106,2.39909 -0.64738,0.64742 -1.42804,0.97111 -2.34196,0.97106 -0.87587,5e-5 -1.65653,-0.34268 -2.34197,-1.02818 -0.68546,-0.68541 -1.02819,-1.46606 -1.02818,-2.34197 -1e-5,-0.91388 0.32368,-1.69454 0.97106,-2.34197 0.64736,-0.64731 1.44706,-0.971 2.39909,-0.97105 m -1.65652,22.39148 -5.02666,18.79285 c -0.83778,3.08456 -1.25666,5.5598 -1.25666,7.42575 0,1.21859 0.20944,2.20869 0.62833,2.9703 0.41889,0.76162 0.97106,1.14243 1.65652,1.14242 1.18049,10e-6 3.06549,-1.40898 5.65499,-4.22696 l 0.91394,0.7997 -0.57122,0.62833 c -2.17061,2.55141 -3.77,4.28408 -4.79817,5.19802 -1.02819,0.87586 -1.98021,1.31379 -2.85606,1.31379 -1.1805,0 -2.18964,-0.59025 -3.02742,-1.77076 -0.79969,-1.21858 -1.19954,-2.72277 -1.19954,-4.51257 0,-1.14241 0.22848,-2.95125 0.68545,-5.42651 l 3.59863,-19.99239 5.59787,-2.34197 m -55.350374,2.34197 5.140902,-2.34197 0,1.02818 0,0.45697 c -5e-6,2.70376 0.07616,5.21709 0.228485,7.53999 0.152317,2.32295 0.437923,5.63597 0.856817,9.93908 0.533124,5.02667 0.932971,8.09216 1.199544,9.1965 0.266557,1.10435 0.723526,1.65652 1.370906,1.65651 0.83777,1e-5 2.20867,-1.33282 4.11272,-3.99848 1.90403,-2.70372 3.76998,-5.95962 5.59787,-9.76771 l -1.77075,-13.70907 5.19802,-2.34197 0.0571,1.42803 c 0.30463,8.1493 0.62831,13.99469 0.97106,17.53619 0.11422,0.91395 0.22846,1.88501 0.34273,2.91318 0.11422,0.99011 0.19038,1.77076 0.22848,2.34196 0.0761,0.57122 0.17134,1.23763 0.28561,1.99924 0.11422,0.72354 0.19038,1.19955 0.22848,1.42803 0.30463,1.25667 0.79968,1.885 1.48515,1.885 1.37088,0 3.73189,-2.72277 7.08302,-8.16833 3.16067,-5.02664 4.74102,-9.27264 4.74106,-12.73801 -4e-5,-2.77987 -0.91398,-4.79814 -2.74182,-6.05484 l 4.34121,-3.99848 c 1.33279,1.52327 1.9992,3.50346 1.99924,5.9406 -4e-5,2.66568 -0.74261,5.6931 -2.22772,9.08226 -1.48519,3.3892 -3.69387,7.17824 -6.62606,11.36711 -1.8279,2.55141 -3.50345,4.66489 -5.02666,6.34044 -1.67557,1.90404 -3.04648,2.85606 -4.11272,2.85606 -0.8378,0 -1.46613,-0.38081 -1.88499,-1.14242 -0.41891,-0.7997 -0.7426,-2.13252 -0.97106,-3.99848 l -1.25667,-10.22469 c -1.67557,3.3892 -3.59865,6.5499 -5.76923,9.48211 -2.85607,3.92232 -5.140914,5.88348 -6.85454,5.88348 -0.799701,0 -1.389952,-0.34273 -1.770755,-1.02818 -0.380812,-0.72353 -0.723538,-2.03732 -1.028181,-3.94136 l -3.427268,-26.84693 m 170.417034,17.29528 -6.15878,19.86584 7.99891,29.96774 -14.60834,0 -4.73174,-21.70596 0,21.70596 -15.17164,0 0,-60.79922 15.17164,0 0,25.53642 4.73174,-14.57078 12.76821,0 m -37.14047,18.81434 -14.3079,0 0,-5.7457 c -3e-5,-2.00282 -0.16276,-3.35474 -0.4882,-4.05578 -0.32549,-0.726 -0.92634,-1.08901 -1.80257,-1.08906 -0.87627,5e-5 -1.46461,0.31299 -1.76502,0.93884 -0.30044,0.62594 -0.45066,2.02793 -0.45064,4.206 l 0,23.50853 c -2e-5,1.77755 0.2253,3.11696 0.67596,4.01823 0.45063,0.87626 1.11407,1.31438 1.99034,1.31438 1.02644,0 1.71493,-0.46316 2.06545,-1.38949 0.37551,-0.92631 0.56328,-2.6788 0.5633,-5.25749 l 0,-5.93347 13.51928,0 c -0.0251,3.9807 -0.17528,6.97246 -0.45064,8.9753 -0.25039,1.97783 -1.08909,4.01824 -2.51609,6.12123 -1.40203,2.07797 -3.24215,3.65522 -5.52037,4.73175 -2.27828,1.0515 -5.09479,1.57725 -8.44955,1.57725 -4.28112,0 -7.67346,-0.72603 -10.17702,-2.1781 -2.50357,-1.47711 -4.28111,-3.53003 -5.3326,-6.15879 -1.02647,-2.65377 -1.5397,-6.40913 -1.5397,-11.26607 l 0,-14.15769 c 0,-4.231 0.42561,-7.42305 1.27682,-9.57616 0.85121,-2.15302 2.6663,-4.06825 5.44527,-5.74569 2.77895,-1.70238 6.15877,-2.55359 10.13946,-2.55364 3.95562,5e-5 7.33544,0.83874 10.13946,2.51609 2.80397,1.67743 4.66913,3.79295 5.59548,6.34655 0.92629,2.55368 1.38945,6.17133 1.38948,10.85298 m -38.5675,-1.31438 0,12.20491 c -4e-5,4.48141 -0.22536,7.7736 -0.67597,9.87658 -0.45068,2.07798 -1.41455,4.03076 -2.89162,5.85836 -1.47714,1.80257 -3.37985,3.14198 -5.70814,4.01823 -2.30331,0.85121 -4.9571,1.27682 -7.96136,1.27682 -3.3548,0 -6.19635,-0.36302 -8.52466,-1.08905 -2.32833,-0.75107 -4.14341,-1.86516 -5.44526,-3.34227 -1.27683,-1.50214 -2.19063,-3.3047 -2.74141,-5.40771 -0.55079,-2.12802 -0.82618,-5.30756 -0.82618,-9.5386 l 0,-12.76822 c 0,-4.63157 0.50071,-8.24922 1.50214,-10.85297 1.00142,-2.60367 2.80399,-4.69415 5.40771,-6.27145 2.60371,-1.5772 5.93345,-2.36582 9.98925,-2.36587 3.40483,5e-5 6.32149,0.51328 8.74998,1.53969 2.45347,1.00148 4.34366,2.31585 5.67059,3.94313 1.32686,1.62736 2.22814,3.30475 2.70385,5.03217 0.50068,1.72751 0.75104,4.35625 0.75108,7.88625 m -15.17164,-3.75535 c -3e-5,-2.55361 -0.13772,-4.15589 -0.41309,-4.80686 -0.27542,-0.67592 -0.86375,-1.0139 -1.76502,-1.01395 -0.9013,5e-5 -1.50216,0.33803 -1.80257,1.01395 -0.30045,0.65097 -0.45066,2.25325 -0.45064,4.80686 l 0,22.49458 c -2e-5,2.35337 0.15019,3.89306 0.45064,4.61909 0.30041,0.701 0.88875,1.0515 1.76502,1.0515 0.90126,0 1.4896,-0.32546 1.76501,-0.9764 0.30041,-0.65092 0.45062,-2.05291 0.45065,-4.206 l 0,-22.98277 m -24.56003,-24.71025 0,60.79922 -15.62228,0 0,-60.79922 15.62228,0 m -20.09115,29.77998 -14.30791,0 0,-5.7457 c -2e-5,-2.00282 -0.16275,-3.35474 -0.4882,-4.05578 -0.32548,-0.726 -0.92634,-1.08901 -1.80257,-1.08906 -0.87627,5e-5 -1.46461,0.31299 -1.76502,0.93884 -0.30044,0.62594 -0.45066,2.02793 -0.45064,4.206 l 0,23.50853 c -2e-5,1.77755 0.22531,3.11696 0.67597,4.01823 0.45062,0.87626 1.11407,1.31438 1.99033,1.31438 1.02645,0 1.71493,-0.46316 2.06545,-1.38949 0.37551,-0.92631 0.56328,-2.6788 0.5633,-5.25749 l 0,-5.93347 13.51929,0 c -0.0251,3.9807 -0.17529,6.97246 -0.45065,8.9753 -0.25039,1.97783 -1.08909,4.01824 -2.51609,6.12123 -1.40203,2.07797 -3.24215,3.65522 -5.52037,4.73175 -2.27827,1.0515 -5.09479,1.57725 -8.44955,1.57725 -4.28112,0 -7.67346,-0.72603 -10.177015,-2.1781 -2.503577,-1.47711 -4.281111,-3.53003 -5.332606,-6.15879 -1.026466,-2.65377 -1.539698,-6.40913 -1.539695,-11.26607 l 0,-14.15769 c -3e-6,-4.231 0.425604,-7.42305 1.276821,-9.57616 0.851209,-2.15302 2.666296,-4.06825 5.445266,-5.74569 2.778949,-1.70238 6.158769,-2.55359 10.139459,-2.55364 3.95562,5e-5 7.33544,0.83874 10.13946,2.51609 2.80397,1.67743 4.66913,3.79295 5.59548,6.34655 0.92629,2.55368 1.38945,6.17133 1.38949,10.85298 m 138.00183,-105.78296 -10.52352,31.91989 11.52784,38.77546 -18.99473,0 -7.42323,-30.30424 0,30.30424 -18.38341,0 0,-70.69535 18.38341,0 0,27.46595 8.16555,-27.46595 17.24809,0 m -50.47796,30.82824 -18.38341,0 0,-12.31383 c -3e-5,-3.58056 -0.20381,-5.80753 -0.61133,-6.68091 -0.37846,-0.90237 -1.23723,-1.35358 -2.5763,-1.35364 -1.51378,6e-5 -2.47443,0.5386 -2.88196,1.61564 -0.40757,1.07715 -0.61134,3.40601 -0.61132,6.98657 l 0,32.83688 c -2e-5,3.43508 0.20375,5.6766 0.61132,6.72457 0.40753,1.048 1.32452,1.57199 2.75097,1.57198 1.36817,10e-6 2.25605,-0.52398 2.66363,-1.57198 0.43663,-1.04797 0.65496,-3.50782 0.65499,-7.37956 l 0,-8.86421 18.38341,0 0,2.75096 c -5e-5,7.3068 -0.52404,12.48851 -1.57198,15.54512 -1.01892,3.05663 -3.30411,5.73481 -6.85557,8.03455 -3.52243,2.29975 -7.87448,3.44962 -13.05615,3.44962 -5.3855,0 -9.82488,-0.97521 -13.31815,-2.92563 -3.4933,-1.95041 -5.80759,-4.64315 -6.94291,-8.07822 -1.13532,-3.46416 -1.70298,-8.66041 -1.70297,-15.58878 l 0,-20.65405 c -1e-5,-5.09432 0.17466,-8.90782 0.52399,-11.44051 0.34932,-2.56168 1.38275,-5.02153 3.10029,-7.37956 1.74663,-2.3579 4.14827,-4.20643 7.2049,-5.54559 3.08572,-1.36813 6.62267,-2.05223 10.61085,-2.0523 5.41457,7e-5 9.88305,1.04805 13.40548,3.14395 3.52236,2.09604 5.83666,4.716 6.94291,7.85989 1.10616,3.11491 1.65926,7.97639 1.65931,14.58447 l 0,6.72457 m -49.64832,10.56719 c -4e-5,7.10303 -0.17471,12.13918 -0.52399,15.10845 -0.32026,2.9402 -1.36825,5.63294 -3.14395,8.07823 -1.74669,2.4453 -4.11921,4.32294 -7.11757,5.63292 -2.99844,1.30998 -6.49172,1.96497 -10.47986,1.96497 -3.78441,0 -7.19036,-0.61133 -10.21786,-1.83397 -2.99841,-1.25176 -5.4146,-3.11485 -7.24856,-5.58926 -1.83398,-2.4744 -2.92563,-5.16714 -3.27496,-8.07822 -0.34933,-2.91105 -0.52399,-8.00542 -0.52399,-15.28312 l 0,-12.0955 c 0,-7.10297 0.16011,-12.12456 0.48033,-15.06479 0.34932,-2.96924 1.39731,-5.67653 3.14395,-8.12189 1.77575,-2.44523 4.16282,-4.32287 7.16124,-5.63292 2.99838,-1.30991 6.49167,-1.9649 10.47985,-1.96497 3.78437,7e-5 7.17576,0.62595 10.17419,1.87764 3.02748,1.22272 5.45822,3.07124 7.29224,5.54559 1.83393,2.47447 2.92558,5.16721 3.27495,8.07822 0.34928,2.91112 0.52395,8.00549 0.52399,15.28312 l 0,12.0955 m -18.38341,-23.23035 c -2e-5,-3.28945 -0.18924,-5.38542 -0.56766,-6.28791 -0.34935,-0.93148 -1.09167,-1.39725 -2.22697,-1.39731 -0.96067,6e-5 -1.70299,0.3785 -2.22696,1.13531 -0.49491,0.72783 -0.74235,2.91113 -0.74233,6.54991 l 0,33.01155 c -2e-5,4.10462 0.16009,6.63725 0.48033,7.59789 0.34931,0.96066 1.13529,1.44099 2.35797,1.44098 1.25173,10e-6 2.05227,-0.55309 2.40163,-1.65931 0.3493,-1.10619 0.52397,-3.74071 0.52399,-7.90356 l 0,-32.48755 m -37.90214,-18.16508 0,56.54755 11.17851,0 0,14.1478 -29.561919,0 0,-70.69535 18.383409,0" />
      </g>
    </g>
    <g
       id="g3728"
       transform="matrix(3.4100455,0,0,3.4100455,-207.39044,-961.33873)">
      <text
         sodipodi:linespacing="125%"
         id="text2940"
         y="475.80569"
         x="86.450882"
         style="font-size:89.42809296px;font-style:normal;font-variant:normal;font-weight:normal;font-stretch:condensed;text-align:start;line-height:125%;writing-mode:lr-tb;text-anchor:start;fill:#ffffff;fill-opacity:1;stroke:none;font-family:Impact;-inkscape-font-specification:Impact Condensed"
         xml:space="preserve"><tspan
           style="font-size:89.42809296px;font-style:normal;font-variant:normal;font-weight:normal;font-stretch:condensed;text-align:start;line-height:125%;writing-mode:lr-tb;text-anchor:start;font-family:Impact;-inkscape-font-specification:Impact Condensed"
           y="475.80569"
           x="86.450882"
           id="tspan2942"
           sodipodi:role="line">LOCK</tspan></text>
      <text
         sodipodi:linespacing="125%"
         id="text2952"
         y="541.91254"
         x="90.67305"
         style="font-size:76.90969086px;font-style:normal;font-variant:normal;font-weight:normal;font-stretch:condensed;text-align:start;line-height:125%;writing-mode:lr-tb;text-anchor:start;fill:#ffffff;fill-opacity:1;stroke:none;font-family:Impact;-inkscape-font-specification:Impact Condensed"
         xml:space="preserve"><tspan
           y="541.91254"
           x="90.67305"
           id="tspan2954"
           sodipodi:role="line">clock</tspan></text>
      <text
         sodipodi:linespacing="125%"
         xml:space="preserve"
         style="font-size:116.98408508px;font-style:normal;font-variant:normal;font-weight:bold;font-stretch:normal;text-align:start;line-height:125%;writing-mode:lr-tb;text-anchor:start;fill:#cccccc;fill-opacity:1;stroke:#666666;stroke-opacity:1;font-family:Savoye LET;-inkscape-font-specification:Savoye LET Bold"
         x="92.026016"
         y="505.85757"
         id="text2944"><tspan
           sodipodi:role="line"
           id="tspan2946"
           x="92.026016"
           y="505.85757"
           style="font-size:116.98408508px;font-style:normal;font-variant:normal;font-weight:bold;font-stretch:normal;text-align:start;line-height:125%;writing-mode:lr-tb;text-anchor:start;fill:#cccccc;stroke:#666666;stroke-opacity:1;font-family:Savoye LET;-inkscape-font-specification:Savoye LET Bold">with a</tspan></text>
    </g>
  </g>
</svg>
